HIERARCHY
ROOT Hips
{
 OFFSET 0.000000 0.000000 0.000000
 CHANNELS 6 Xposition Yposition Zposition Yrotation Xrotation Zrotation
 JOINT Chest
 {
  OFFSET 0.000000 9.585900 0.002600
  CHANNELS 3 Yrotation Xrotation Zrotation
  JOINT Chest2
  {
   OFFSET 0.000000 9.601200 -0.005300
   CHANNELS 3 Yrotation Xrotation Zrotation
   JOINT Chest3
   {
    OFFSET 0.000000 9.561800 0.000000
    CHANNELS 3 Yrotation Xrotation Zrotation
    JOINT Chest4
    {
     OFFSET 0.000000 9.552100 0.000000
     CHANNELS 3 Yrotation Xrotation Zrotation
     JOINT Neck
     {
      OFFSET 0.000000 14.453000 0.000000
      CHANNELS 3 Yrotation Xrotation Zrotation
      JOINT Head
      {
       OFFSET 0.000000 8.936500 -0.011300
       CHANNELS 3 Yrotation Xrotation Zrotation
       End Site
       {
        OFFSET 0.000000 17.073600 -0.006000
       }
      }
     }
     JOINT RightCollar
     {
      OFFSET -2.921100 9.558500 0.000000
      CHANNELS 3 Yrotation Xrotation Zrotation
      JOINT RightShoulder
      {
       OFFSET -13.519700 0.000000 0.000000
       CHANNELS 3 Yrotation Xrotation Zrotation
       JOINT RightElbow
       {
        OFFSET 0.000000 -29.696600 0.000000
        CHANNELS 3 Yrotation Xrotation Zrotation
        JOINT RightWrist
        {
         OFFSET 0.000000 -24.004700 0.000000
         CHANNELS 3 Yrotation Xrotation Zrotation
         End Site
         {
          OFFSET 0.000000 -17.728500 0.000000
         }
        }
       }
      }
     }
     JOINT LeftCollar
     {
      OFFSET 2.921100 9.558500 0.000000
      CHANNELS 3 Yrotation Xrotation Zrotation
      JOINT LeftShoulder
      {
       OFFSET 13.519700 0.000000 0.000000
       CHANNELS 3 Yrotation Xrotation Zrotation
       JOINT LeftElbow
       {
        OFFSET 0.000000 -29.696600 0.000000
        CHANNELS 3 Yrotation Xrotation Zrotation
        JOINT LeftWrist
        {
         OFFSET 0.000000 -24.004700 0.000000
         CHANNELS 3 Yrotation Xrotation Zrotation
         End Site
         {
          OFFSET 0.000000 -17.728500 0.000000
         }
        }
       }
      }
     }
    }
   }
  }
 }
 JOINT RightHip
 {
  OFFSET -7.771700 -0.012900 -0.001300
  CHANNELS 3 Yrotation Xrotation Zrotation
  JOINT RightKnee
  {
   OFFSET 0.000000 -40.869800 0.001200
   CHANNELS 3 Yrotation Xrotation Zrotation
   JOINT RightAnkle
   {
    OFFSET 0.000000 -39.717900 0.002100
    CHANNELS 3 Yrotation Xrotation Zrotation
    JOINT RightToe
    {
     OFFSET 0.000000 -4.965400 11.033500
     CHANNELS 3 Yrotation Xrotation Zrotation
     End Site
     {
      OFFSET 0.000000 -1.423100 5.872300
     }
    }
   }
  }
 }
 JOINT LeftHip
 {
  OFFSET 7.771700 -0.012900 -0.001300
  CHANNELS 3 Yrotation Xrotation Zrotation
  JOINT LeftKnee
  {
   OFFSET 0.000000 -40.869800 0.001200
   CHANNELS 3 Yrotation Xrotation Zrotation
   JOINT LeftAnkle
   {
    OFFSET 0.000000 -39.717900 0.002100
    CHANNELS 3 Yrotation Xrotation Zrotation
    JOINT LeftToe
    {
     OFFSET 0.000000 -4.965400 11.033500
     CHANNELS 3 Yrotation Xrotation Zrotation
     End Site
     {
      OFFSET 0.000000 -1.423100 5.872300
     }
    }
   }
  }
 }
}
MOTION
Frames: 8
Frame Time: 0.008333
0.000000 85.388000 0.000000 0.000000 -5.767877 0.000000 0.000000 11.653817 0.000000 0.000000 -5.885947 0.000000 0.000000 -0.000000 0.000000 0.000000 -0.000000 0.000000 0.000000 12.528835 0.000000 0.000000 0.711642 0.000000 0.000000 -0.000000 0.000000 0.000000 0.000000 -90.000000 0.000000 -2.309062 0.000000 0.000000 2.309062 0.000000 0.000000 -0.000000 0.000000 0.000000 -0.000000 90.000000 0.000000 -2.309062 0.000000 0.000000 2.309062 0.000000 0.000000 8.520406 0.000000 0.000000 1.905762 0.000000 -0.000000 -4.658285 0.000000 0.000000 -0.000000 0.000000 0.000000 8.520406 0.000000 0.000000 1.905762 0.000000 -0.000000 -4.658285 0.000000 0.000000 -0.000000 0.000000
-7.646369 55.444539 25.455189 178.459027 -28.572722 -9.533894 0.087605 14.586417 5.534965 -0.007040 8.476699 2.323021 0.051418 10.570503 2.906828 -0.004100 8.440566 2.312427 4.287366 21.948335 0.254484 4.566980 -2.197961 -0.715299 0.731846 -0.275398 -3.360167 -3.691772 -8.105705 1.747369 132.402781 -44.590545 -107.139925 18.351178 -19.001425 -53.741770 -11.098130 2.294352 -3.952122 -2.851700 -3.454690 2.993744 -122.204844 -45.003740 130.817032 10.084107 -44.576839 22.838130 -18.407661 -37.595588 9.932986 30.554111 86.089329 27.076641 -0.388332 -16.296111 -1.006625 -0.021873 0.549737 -0.013264 -14.742166 -49.312577 16.385165 173.418426 79.488878 168.658108 -2.308443 -16.958314 1.779994 -0.458515 -1.890908 -0.210228
-7.647745 55.442501 25.458919 178.454480 -28.554123 -9.518373 0.080215 14.585009 5.521877 -0.001977 8.465926 2.322577 0.052143 10.581701 2.911121 0.000372 8.501910 2.336004 4.276682 21.887361 0.223012 4.583357 -2.127350 -0.694252 0.731737 -0.292691 -3.371220 -3.691637 -8.152535 1.732389 132.366134 -44.581622 -107.098765 18.368260 -18.996498 -53.736938 -11.105393 2.243929 -3.963254 -2.908407 -3.441313 2.998737 -122.109349 -44.977085 130.779959 10.043543 -44.626380 22.878851 -18.417536 -37.622185 9.926730 30.767804 86.086640 27.291109 -0.398805 -16.294267 -1.016571 -0.010759 0.550518 -0.013796 -14.730355 -49.331660 16.365171 173.469624 79.494397 168.713979 -2.313744 -16.986187 1.774324 -0.438785 -1.862507 -0.202819
-7.648180 55.441592 25.460803 178.441155 -28.551819 -9.503244 0.082338 14.600800 5.512242 0.001763 8.474619 2.327344 0.055976 10.631664 2.932084 0.003706 8.484987 2.330725 4.280944 21.893778 0.220194 4.588463 -2.105645 -0.693276 0.731230 -0.321519 -3.385385 -3.676875 -8.128657 1.727112 132.281742 -44.552154 -107.015512 18.390967 -19.017011 -53.776268 -11.120905 2.264689 -3.968643 -2.955768 -3.478729 3.008603 -122.045280 -44.960166 130.772807 10.012722 -44.665063 22.884681 -18.418135 -37.631332 9.921639 30.980401 86.080971 27.501939 -0.404334 -16.292004 -1.027489 -0.041227 0.550859 -0.013484 -14.705744 -49.329021 16.338444 173.584601 79.510818 168.837678 -2.291725 -17.012344 1.762429 -0.424312 -1.834295 -0.197249
-7.648442 55.440778 25.462277 178.436011 -28.552818 -9.492254 0.075018 14.634456 5.514189 0.006143 8.481487 2.328634 0.060575 10.612115 2.923746 0.004485 8.490221 2.332429 4.291041 21.935656 0.233555 4.594490 -2.087253 -0.692626 0.724012 -0.262034 -3.372523 -3.646048 -8.126896 1.722537 132.206778 -44.498607 -106.958494 18.412574 -19.008640 -53.732608 -11.138824 2.325525 -3.967340 -3.023428 -3.483438 3.016240 -122.015686 -44.922930 130.849130 10.005781 -44.669179 22.835210 -18.435545 -37.633505 9.919283 31.175562 86.075896 27.684686 -0.388586 -16.290833 -1.041221 -0.025316 0.551963 -0.013898 -14.688650 -49.326274 16.316227 173.651771 79.521044 168.909955 -2.285541 -17.025819 1.761118 -0.415553 -1.818074 -0.195787
-7.659912 55.433223 25.471518 178.477593 -28.486835 -9.436161 0.005150 14.593279 5.442055 0.007909 8.500176 2.335932 0.061489 10.595327 2.916351 0.009593 8.540617 2.351922 4.303488 21.983297 0.246152 4.590919 -2.121592 -0.713396 0.711171 -0.247961 -3.377975 -3.627021 -8.184308 1.710102 132.130563 -44.494168 -106.875750 18.433738 -19.032783 -53.752697 -11.160074 2.321742 -3.972502 -3.020695 -3.542088 3.012333 -121.932187 -44.958687 130.708393 9.953287 -44.728100 22.855579 -18.448676 -37.730745 9.849191 31.456160 86.092019 27.960121 -0.383168 -16.298880 -1.037914 -0.023589 0.554996 -0.015245 -14.654375 -49.375541 16.216079 173.682584 79.586231 168.954495 -2.371768 -17.104716 1.743167 -0.318717 -1.700661 -0.156340
-7.645090 55.438786 25.465664 178.429938 -28.558554 -9.493379 0.077401 14.666192 5.527744 0.007780 8.529832 2.347268 0.067237 10.638842 2.934371 0.012142 8.534158 2.348858 4.309296 21.992584 0.244210 4.580828 -2.164501 -0.734095 0.696843 -0.257796 -3.389721 -3.593830 -8.153634 1.706645 132.130015 -44.427738 -106.911027 18.437931 -19.029129 -53.709509 -11.184563 2.312493 -3.976122 -3.045503 -3.565295 3.008502 -121.871995 -44.978585 130.646698 9.901127 -44.780030 22.891302 -18.443173 -37.630137 9.926297 31.284923 86.071765 27.806665 -0.404830 -16.284433 -1.051659 -0.017339 0.552486 -0.016371 -14.686110 -49.335967 16.290433 173.607060 79.509093 168.883184 -2.238134 -16.998265 1.761812 -0.435461 -1.843157 -0.212392
-7.656277 55.430655 25.474583 178.465256 -28.498888 -9.434052 0.015211 14.620879 5.451381 0.005875 8.552322 2.354779 0.073793 10.667445 2.946170 0.014487 8.534442 2.350019 4.314515 21.997941 0.242756 4.576105 -2.188934 -0.748989 0.680593 -0.250659 -3.394325 -3.565427 -8.152861 1.697909 132.061267 -44.402424 -106.837955 18.462225 -19.041594 -53.701976 -11.206465 2.321939 -3.977266 -3.111718 -3.541322 3.015825 -121.839221 -44.986694 130.675201 9.920550 -44.754849 22.795393 -18.447578 -37.723635 9.850070 31.700070 86.083806 28.223516 -0.408923 -16.294493 -1.056051 -0.010351 0.556795 -0.014403 -14.642276 -49.374236 16.184361 173.679006 79.580576 168.973412 -2.322485 -17.096772 1.728457 -0.330248 -1.708807 -0.166676
